<?xml version="1.0" encoding="UTF-8"?>
<svg xmlns="http://www.w3.org/2000/svg" xmlns:xlink="http://www.w3.org/1999/xlink" width="1000px" height="626px" viewBox="0 0 1500 939" version="1.1">
<g id="surface1">
<path style=" stroke:none;fill-rule:nonzero;fill:rgb(51.764706%,0%,15.294118%);fill-opacity:1;" d="M 0.75 1.5 C 495.253906 1.5 989.761719 1.5 1499.25 1.5 C 1499.25 310.378906 1499.25 619.261719 1499.25 937.5 C 1004.746094 937.5 510.238281 937.5 0.75 937.5 C 0.75 628.621094 0.75 319.738281 0.75 1.5 Z M 35.25 35.25 C 35.25 321.855469 35.25 608.460938 35.25 903.75 C 506.984375 903.75 978.71875 903.75 1464.75 903.75 C 1464.75 617.144531 1464.75 330.539062 1464.75 35.25 C 993.015625 35.25 521.28125 35.25 35.25 35.25 Z M 35.25 35.25 "/>
<path style=" stroke:none;fill-rule:nonzero;fill:rgb(51.764706%,0%,15.294118%);fill-opacity:1;" d="M 875.25 284.25 C 897.773438 284.25 920.296875 284.25 943.5 284.25 C 946.03125 294.375 946.03125 294.375 946.777344 298.042969 C 946.949219 298.882812 947.121094 299.722656 947.296875 300.585938 C 947.476562 301.476562 947.65625 302.367188 947.84375 303.285156 C 948.039062 304.253906 948.238281 305.222656 948.441406 306.21875 C 948.980469 308.871094 949.519531 311.523438 950.058594 314.179688 C 950.636719 317.027344 951.214844 319.875 951.796875 322.722656 C 952.792969 327.617188 953.789062 332.515625 954.78125 337.410156 C 956.359375 345.175781 957.941406 352.9375 959.519531 360.699219 C 959.652344 361.347656 959.785156 362 959.921875 362.667969 C 960.457031 365.296875 960.992188 367.929688 961.527344 370.558594 C 962.335938 374.527344 963.144531 378.5 963.953125 382.46875 C 968.617188 405.386719 973.304688 428.300781 978.003906 451.210938 C 979.496094 458.492188 980.988281 465.777344 982.484375 473.058594 C 982.859375 474.890625 983.234375 476.722656 983.609375 478.554688 C 988.648438 503.128906 993.675781 527.703125 998.703125 552.28125 C 999.046875 553.96875 999.390625 555.65625 999.738281 557.339844 C 1002.492188 570.8125 1005.246094 584.28125 1008 597.75 C 1012.972656 576.292969 1017.695312 554.78125 1022.40625 533.265625 C 1023.503906 528.25 1024.605469 523.234375 1025.703125 518.21875 C 1025.933594 517.179688 1026.160156 516.140625 1026.390625 515.101562 C 1026.734375 513.523438 1027.082031 511.945312 1027.425781 510.367188 C 1028.132812 507.152344 1028.835938 503.933594 1029.542969 500.71875 C 1034.777344 476.832031 1040.027344 452.949219 1045.28125 429.066406 C 1046.015625 425.722656 1046.75 422.382812 1047.484375 419.042969 C 1054.269531 388.171875 1061.0625 357.304688 1067.859375 326.4375 C 1068.054688 325.558594 1068.246094 324.679688 1068.445312 323.773438 C 1069.542969 318.792969 1070.640625 313.8125 1071.734375 308.835938 C 1072.0625 307.351562 1072.390625 305.867188 1072.714844 304.386719 C 1073.160156 302.371094 1073.601562 300.355469 1074.046875 298.34375 C 1074.234375 297.480469 1074.234375 297.480469 1074.429688 296.601562 C 1074.667969 295.527344 1074.90625 294.449219 1075.144531 293.375 C 1075.398438 292.207031 1075.648438 291.039062 1075.898438 289.867188 C 1076.027344 289.253906 1076.160156 288.640625 1076.292969 288.011719 C 1076.410156 287.453125 1076.527344 286.894531 1076.648438 286.316406 C 1077 285 1077 285 1077.75 284.25 C 1079.871094 284.179688 1081.976562 284.15625 1084.101562 284.164062 C 1085.097656 284.164062 1085.097656 284.164062 1086.117188 284.164062 C 1088.328125 284.164062 1090.542969 284.171875 1092.753906 284.175781 C 1094.28125 284.179688 1095.8125 284.179688 1097.339844 284.179688 C 1101.375 284.183594 1105.40625 284.191406 1109.441406 284.199219 C 1113.550781 284.207031 1117.664062 284.210938 1121.777344 284.214844 C 1129.851562 284.222656 1137.925781 284.234375 1146 284.25 C 1148.632812 294.21875 1150.703125 304.277344 1152.734375 314.382812 C 1153.097656 316.183594 1153.464844 317.980469 1153.828125 319.777344 C 1154.609375 323.628906 1155.386719 327.484375 1156.164062 331.335938 C 1157.414062 337.523438 1158.667969 343.710938 1159.921875 349.898438 C 1160.082031 350.6875 1160.082031 350.6875 1160.242188 351.488281 C 1160.785156 354.160156 1161.324219 356.828125 1161.867188 359.5 C 1162.304688 361.667969 1162.746094 363.832031 1163.183594 366 C 1167.53125 387.460938 1171.921875 408.917969 1176.324219 430.367188 C 1178.050781 438.769531 1179.773438 447.171875 1181.496094 455.574219 C 1181.691406 456.527344 1181.886719 457.476562 1182.085938 458.453125 C 1185.609375 475.644531 1189.121094 492.835938 1192.628906 510.027344 C 1192.890625 511.308594 1193.152344 512.589844 1193.414062 513.867188 C 1195.847656 525.808594 1198.285156 537.75 1200.71875 549.695312 C 1201.671875 554.378906 1202.628906 559.0625 1203.582031 563.746094 C 1204.242188 566.988281 1204.90625 570.230469 1205.566406 573.472656 C 1206.0625 575.917969 1206.5625 578.367188 1207.0625 580.816406 C 1207.238281 581.679688 1207.414062 582.542969 1207.59375 583.429688 C 1208.519531 587.964844 1209.480469 592.488281 1210.5 597 C 1213.414062 586.734375 1215.644531 576.320312 1217.921875 565.898438 C 1218.363281 563.90625 1218.800781 561.914062 1219.238281 559.925781 C 1220.179688 555.652344 1221.117188 551.378906 1222.054688 547.105469 C 1224.332031 536.730469 1226.613281 526.355469 1228.898438 515.984375 C 1229.425781 513.585938 1229.953125 511.191406 1230.480469 508.796875 C 1235.824219 484.523438 1241.207031 460.261719 1246.605469 436 C 1248.566406 427.179688 1250.527344 418.363281 1252.488281 409.542969 C 1252.722656 408.503906 1252.953125 407.464844 1253.183594 406.425781 C 1258.945312 380.523438 1264.679688 354.613281 1270.414062 328.707031 C 1270.78125 327.046875 1271.148438 325.386719 1271.515625 323.730469 C 1274.429688 310.570312 1277.339844 297.410156 1280.25 284.25 C 1303.019531 284.25 1325.789062 284.25 1349.25 284.25 C 1348.296875 289.007812 1347.316406 293.640625 1346.050781 298.304688 C 1345.804688 299.222656 1345.804688 299.222656 1345.554688 300.160156 C 1345.011719 302.1875 1344.464844 304.210938 1343.917969 306.234375 C 1343.527344 307.683594 1343.136719 309.136719 1342.75 310.585938 C 1341.699219 314.496094 1340.648438 318.402344 1339.59375 322.308594 C 1338.488281 326.421875 1337.382812 330.539062 1336.273438 334.65625 C 1334.46875 341.382812 1332.660156 348.113281 1330.847656 354.839844 C 1328.519531 363.503906 1326.191406 372.167969 1323.867188 380.832031 C 1323.695312 381.46875 1323.527344 382.105469 1323.351562 382.761719 C 1322.671875 385.289062 1321.992188 387.820312 1321.316406 390.347656 C 1319.636719 396.613281 1317.953125 402.878906 1316.273438 409.144531 C 1315.4375 412.261719 1314.601562 415.375 1313.765625 418.492188 C 1313.597656 419.109375 1313.433594 419.726562 1313.261719 420.363281 C 1311.386719 427.351562 1309.511719 434.34375 1307.636719 441.332031 C 1307.464844 441.964844 1307.296875 442.601562 1307.121094 443.257812 C 1306.257812 446.46875 1305.394531 449.683594 1304.535156 452.894531 C 1302.988281 458.664062 1301.4375 464.433594 1299.890625 470.203125 C 1299.03125 473.40625 1298.171875 476.609375 1297.3125 479.8125 C 1296.96875 481.09375 1296.625 482.375 1296.28125 483.65625 C 1296.109375 484.289062 1295.941406 484.925781 1295.765625 485.578125 C 1295.25 487.5 1294.734375 489.421875 1294.21875 491.34375 C 1294.046875 491.976562 1293.878906 492.613281 1293.703125 493.265625 C 1293.359375 494.546875 1293.015625 495.828125 1292.671875 497.109375 C 1291.8125 500.3125 1290.953125 503.515625 1290.09375 506.722656 C 1288.550781 512.476562 1287.003906 518.230469 1285.460938 523.988281 C 1284.605469 527.179688 1283.75 530.367188 1282.890625 533.558594 C 1282.636719 534.503906 1282.636719 534.503906 1282.378906 535.472656 C 1279.917969 544.640625 1277.460938 553.808594 1275.003906 562.976562 C 1273.410156 568.929688 1271.8125 574.878906 1270.21875 580.828125 C 1269.960938 581.789062 1269.960938 581.789062 1269.699219 582.765625 C 1265.996094 596.582031 1262.285156 610.390625 1258.546875 624.195312 C 1258.414062 624.691406 1258.28125 625.183594 1258.140625 625.691406 C 1255.519531 635.378906 1252.882812 645.0625 1250.25 654.75 C 1224.261719 654.75 1198.273438 654.75 1171.5 654.75 C 1170.53125 651.84375 1169.710938 649.21875 1169.070312 646.265625 C 1168.902344 645.492188 1168.730469 644.714844 1168.558594 643.917969 C 1168.375 643.078125 1168.195312 642.234375 1168.007812 641.367188 C 1167.714844 640.015625 1167.714844 640.015625 1167.414062 638.636719 C 1166.871094 636.140625 1166.328125 633.648438 1165.789062 631.152344 C 1165.207031 628.460938 1164.621094 625.769531 1164.035156 623.078125 C 1163.023438 618.414062 1162.011719 613.75 1161 609.089844 C 1159.53125 602.304688 1158.058594 595.523438 1156.585938 588.742188 C 1155.898438 585.578125 1155.207031 582.414062 1154.519531 579.246094 C 1154.382812 578.613281 1154.246094 577.980469 1154.105469 577.328125 C 1153.117188 572.773438 1152.125 568.222656 1151.136719 563.667969 C 1145.921875 539.632812 1140.691406 515.597656 1135.460938 491.566406 C 1133.839844 484.121094 1132.21875 476.675781 1130.597656 469.230469 C 1124.253906 440.066406 1117.882812 410.90625 1111.5 381.75 C 1110.152344 385.535156 1109.214844 389.351562 1108.316406 393.257812 C 1108.152344 393.960938 1107.988281 394.660156 1107.820312 395.382812 C 1107.273438 397.730469 1106.730469 400.078125 1106.1875 402.425781 C 1105.796875 404.109375 1105.40625 405.796875 1105.011719 407.480469 C 1103.945312 412.078125 1102.878906 416.675781 1101.8125 421.273438 C 1100.792969 425.667969 1099.773438 430.0625 1098.75 434.457031 C 1096.71875 443.214844 1094.683594 451.972656 1092.65625 460.730469 C 1090.765625 468.867188 1088.878906 477.003906 1086.988281 485.136719 C 1086.820312 485.863281 1086.820312 485.863281 1086.648438 486.601562 C 1086.085938 489.03125 1085.519531 491.460938 1084.957031 493.890625 C 1077.328125 526.730469 1069.710938 559.574219 1062.125 592.421875 C 1061.90625 593.371094 1061.6875 594.320312 1061.460938 595.296875 C 1056.886719 615.113281 1052.320312 634.933594 1047.75 654.75 C 1021.515625 654.75 995.28125 654.75 968.25 654.75 C 963.941406 639.242188 963.941406 639.242188 962.03125 631.601562 C 961.8125 630.730469 961.59375 629.859375 961.367188 628.960938 C 960.769531 626.597656 960.179688 624.234375 959.585938 621.875 C 958.949219 619.332031 958.308594 616.792969 957.671875 614.253906 C 956.578125 609.90625 955.484375 605.558594 954.390625 601.210938 C 952.667969 594.335938 950.9375 587.464844 949.210938 580.59375 C 948.773438 578.851562 948.335938 577.113281 947.898438 575.371094 C 947.605469 574.210938 947.3125 573.050781 947.019531 571.894531 C 946 567.832031 944.976562 563.769531 943.957031 559.707031 C 939.285156 541.117188 934.597656 522.535156 929.898438 503.953125 C 928.402344 498.019531 926.902344 492.089844 925.40625 486.15625 C 925.03125 484.671875 924.652344 483.1875 924.277344 481.703125 C 919.476562 462.699219 914.683594 443.691406 909.890625 424.6875 C 909.566406 423.402344 909.566406 423.402344 909.234375 422.089844 C 907.265625 414.28125 905.296875 406.472656 903.328125 398.664062 C 900.375 386.960938 897.421875 375.253906 894.46875 363.550781 C 892.890625 357.296875 891.3125 351.039062 889.734375 344.785156 C 888.574219 340.179688 887.410156 335.574219 886.25 330.96875 C 885.167969 326.679688 884.085938 322.390625 883.003906 318.101562 C 882.605469 316.535156 882.210938 314.96875 881.816406 313.402344 C 881.632812 312.667969 881.445312 311.933594 881.253906 311.175781 C 881.074219 310.464844 880.894531 309.753906 880.710938 309.019531 C 880.367188 307.652344 880.023438 306.285156 879.679688 304.917969 C 878.902344 301.835938 878.121094 298.75 877.328125 295.671875 C 877.183594 295.117188 877.042969 294.5625 876.898438 293.992188 C 876.519531 292.523438 876.140625 291.058594 875.761719 289.589844 C 875.25 287.25 875.25 287.25 875.25 284.25 Z M 875.25 284.25 "/>
<path style=" stroke:none;fill-rule:nonzero;fill:rgb(51.764706%,0%,15.294118%);fill-opacity:1;" d="M 150.75 284.25 C 171.292969 284.25 191.835938 284.25 213 284.25 C 216.710938 290.933594 220.425781 297.613281 224.25 304.5 C 226.273438 308.066406 228.296875 311.632812 230.34375 315.1875 C 231.355469 316.949219 232.363281 318.710938 233.375 320.472656 C 233.859375 321.320312 234.34375 322.167969 234.84375 323.039062 C 236.953125 326.726562 239.039062 330.425781 241.125 334.125 C 244.726562 340.511719 248.359375 346.886719 252 353.25 C 255.640625 359.613281 259.273438 365.988281 262.875 372.375 C 266.433594 378.683594 270.015625 384.976562 273.609375 391.265625 C 273.859375 391.703125 274.113281 392.144531 274.371094 392.597656 C 276.925781 397.070312 279.488281 401.542969 282.046875 406.011719 C 283.3125 408.222656 284.578125 410.429688 285.84375 412.640625 C 286.09375 413.074219 286.34375 413.511719 286.597656 413.960938 C 290.132812 420.140625 293.628906 426.34375 297.09375 432.5625 C 300.476562 438.636719 303.929688 444.660156 307.453125 450.65625 C 311.683594 457.859375 315.761719 465.136719 319.796875 472.449219 C 323.285156 478.757812 326.890625 484.988281 330.546875 491.203125 C 334.285156 497.578125 337.882812 504.03125 341.425781 510.515625 C 345.933594 518.714844 350.730469 526.675781 355.5 534.75 C 355.746094 452.085938 355.996094 369.421875 356.25 284.25 C 376.546875 284.25 396.839844 284.25 417.75 284.25 C 417.75 405.773438 417.75 527.296875 417.75 652.5 C 397.207031 652.5 376.664062 652.5 355.5 652.5 C 348.808594 640.789062 342.144531 629.082031 335.570312 617.308594 C 333.015625 612.757812 330.390625 608.25 327.75 603.75 C 323.761719 596.953125 319.875 590.105469 316.039062 583.222656 C 312.757812 577.339844 309.4375 571.484375 306.09375 565.640625 C 305.84375 565.203125 305.59375 564.769531 305.335938 564.320312 C 303.558594 561.210938 301.78125 558.105469 300 555 C 297.96875 551.453125 295.9375 547.90625 293.90625 544.359375 C 293.65625 543.921875 293.40625 543.488281 293.152344 543.039062 C 289.617188 536.859375 286.121094 530.65625 282.65625 524.4375 C 279.273438 518.363281 275.820312 512.339844 272.296875 506.34375 C 268.066406 499.140625 263.988281 491.863281 259.953125 484.550781 C 256.878906 478.988281 253.722656 473.480469 250.5 468 C 246.78125 461.675781 243.167969 455.300781 239.625 448.875 C 236.0625 442.421875 232.433594 436.015625 228.703125 429.65625 C 223.355469 420.503906 218.179688 411.25 213 402 C 212.753906 484.664062 212.503906 567.328125 212.25 652.5 C 191.953125 652.5 171.660156 652.5 150.75 652.5 C 150.75 530.976562 150.75 409.453125 150.75 284.25 Z M 150.75 284.25 "/>
<path style=" stroke:none;fill-rule:nonzero;fill:rgb(51.764706%,0%,15.294118%);fill-opacity:1;" d="M 626.402344 284.90625 C 627.238281 284.910156 627.238281 284.910156 628.09375 284.914062 C 628.679688 284.914062 629.261719 284.914062 629.867188 284.914062 C 631.808594 284.914062 633.753906 284.921875 635.699219 284.925781 C 637.042969 284.929688 638.386719 284.929688 639.730469 284.929688 C 643.277344 284.933594 646.820312 284.941406 650.363281 284.949219 C 653.980469 284.957031 657.59375 284.960938 661.207031 284.964844 C 668.304688 284.972656 675.402344 284.984375 682.5 285 C 684.546875 290 686.433594 295.03125 688.1875 300.136719 C 688.558594 301.214844 688.558594 301.214844 688.9375 302.308594 C 689.46875 303.847656 690 305.386719 690.53125 306.925781 C 691.667969 310.21875 692.804688 313.511719 693.945312 316.800781 C 694.527344 318.492188 695.113281 320.1875 695.699219 321.878906 C 698.183594 329.066406 700.6875 336.25 703.195312 343.429688 C 707.710938 356.351562 712.203125 369.285156 716.6875 382.21875 C 720.40625 392.941406 724.132812 403.660156 727.875 414.375 C 732.160156 426.652344 736.429688 438.933594 740.6875 451.21875 C 744.40625 461.941406 748.132812 472.660156 751.875 483.375 C 756.160156 495.652344 760.429688 507.933594 764.6875 520.21875 C 768.40625 530.941406 772.132812 541.660156 775.875 552.375 C 779.890625 563.871094 783.886719 575.371094 787.875 586.875 C 792.035156 598.878906 796.207031 610.878906 800.390625 622.875 C 800.734375 623.855469 800.734375 623.855469 801.082031 624.859375 C 801.523438 626.125 801.964844 627.394531 802.410156 628.660156 C 802.828125 629.863281 803.25 631.070312 803.667969 632.273438 C 804.703125 635.242188 805.75 638.203125 806.816406 641.164062 C 807.027344 641.75 807.238281 642.335938 807.457031 642.941406 C 807.855469 644.050781 808.253906 645.15625 808.660156 646.265625 C 809.445312 648.449219 810 650.160156 810 652.5 C 789.457031 652.5 768.914062 652.5 747.75 652.5 C 745.375 646.800781 743.132812 641.226562 741.1875 635.394531 C 740.9375 634.648438 740.683594 633.902344 740.425781 633.136719 C 739.890625 631.546875 739.355469 629.960938 738.824219 628.375 C 737.421875 624.203125 736.015625 620.039062 734.605469 615.871094 C 734.324219 615.035156 734.039062 614.203125 733.75 613.34375 C 730.691406 604.316406 727.523438 595.324219 724.320312 586.347656 C 724.128906 585.804688 723.933594 585.261719 723.734375 584.699219 C 723.222656 583.257812 722.707031 581.816406 722.191406 580.371094 C 721.5 578.25 721.5 578.25 721.5 576.75 C 675.960938 576.75 630.421875 576.75 583.5 576.75 C 582.757812 579.226562 582.015625 581.699219 581.25 584.25 C 580.710938 585.871094 580.164062 587.492188 579.597656 589.105469 C 579.292969 589.984375 578.988281 590.859375 578.671875 591.765625 C 578.347656 592.695312 578.019531 593.621094 577.683594 594.582031 C 577.335938 595.578125 576.988281 596.578125 576.636719 597.574219 C 575.90625 599.667969 575.175781 601.757812 574.441406 603.851562 C 573.527344 606.460938 572.617188 609.070312 571.703125 611.683594 C 570.980469 613.75 570.257812 615.816406 569.535156 617.882812 C 569.042969 619.292969 568.550781 620.699219 568.058594 622.109375 C 564.5 632.257812 560.867188 642.375 557.25 652.5 C 536.210938 652.5 515.175781 652.5 493.5 652.5 C 495.015625 647.449219 496.578125 642.464844 498.3125 637.496094 C 498.554688 636.789062 498.800781 636.082031 499.054688 635.351562 C 499.855469 633.035156 500.664062 630.722656 501.46875 628.40625 C 502.039062 626.765625 502.609375 625.121094 503.179688 623.480469 C 507.300781 611.640625 511.472656 599.824219 515.667969 588.015625 C 519.707031 576.652344 523.683594 565.269531 527.625 553.875 C 532.082031 540.980469 536.605469 528.113281 541.171875 515.257812 C 545.207031 503.898438 549.183594 492.519531 553.125 481.125 C 557.582031 468.230469 562.105469 455.363281 566.671875 442.507812 C 570.707031 431.148438 574.683594 419.769531 578.625 408.375 C 583.082031 395.484375 587.601562 382.613281 592.171875 369.761719 C 596.242188 358.308594 600.246094 346.832031 604.21875 335.34375 C 608.386719 323.292969 612.597656 311.261719 616.875 299.25 C 617.121094 298.5625 617.363281 297.875 617.617188 297.164062 C 618.296875 295.25 618.980469 293.335938 619.664062 291.421875 C 619.964844 290.570312 619.964844 290.570312 620.273438 289.699219 C 621.996094 284.914062 621.996094 284.914062 626.402344 284.90625 Z M 652.5 378.75 C 649.132812 387.539062 646.007812 396.398438 642.941406 405.296875 C 638.367188 418.582031 633.726562 431.839844 629.015625 445.078125 C 623.546875 460.457031 618.210938 475.882812 612.902344 491.320312 C 608.804688 503.242188 604.664062 515.148438 600.453125 527.03125 C 600.265625 527.558594 600.078125 528.089844 599.886719 528.632812 C 599.394531 530.027344 598.902344 531.417969 598.40625 532.808594 C 597.710938 534.527344 597.710938 534.527344 597.75 535.5 C 633.636719 535.5 669.523438 535.5 706.5 535.5 C 705.15625 530.570312 703.835938 525.808594 702.125 521.023438 C 701.699219 519.824219 701.277344 518.625 700.851562 517.421875 C 700.628906 516.789062 700.40625 516.15625 700.171875 515.503906 C 695.199219 501.464844 690.394531 487.371094 685.632812 473.257812 C 680.753906 458.789062 675.835938 444.339844 670.777344 429.929688 C 664.804688 412.914062 659.03125 395.832031 653.25 378.75 C 653.003906 378.75 652.753906 378.75 652.5 378.75 Z M 652.5 378.75 "/>
</g>
</svg>
